<svg width="522" height="387" viewBox="0 0 522 387" fill="none" xmlns="http://www.w3.org/2000/svg">
<circle cx="392.793" cy="66.4727" r="61.9405" fill="#2A09F2"/>
<circle cx="262.492" cy="66.0951" r="66.0951" fill="#08F412"/>
<circle cx="135.589" cy="66.0951" r="57.786" fill="#F10909"/>
<path d="M141.593 250.784C130.41 207.116 139.523 172.117 148.335 161.416C126.581 139.661 115.26 138.004 111.591 139.324C84.9398 139.324 55.5987 177.512 38.4288 207.116C-14.938 299.127 -0.794775 336.141 10.9134 352.381C61.1456 407.523 177.851 384.862 198.945 357.435C179.361 338.029 149.524 281.754 141.593 250.784Z" fill="#F10909"/>
<path d="M380.407 250.784C391.59 207.116 382.477 172.117 373.665 161.416C395.419 139.661 406.74 138.004 410.409 139.324C437.06 139.324 466.401 177.512 483.571 207.116C536.938 299.127 522.795 336.141 511.087 352.381C460.854 407.523 344.149 384.862 323.055 357.435C342.639 338.029 372.476 281.754 380.407 250.784Z" fill="#2A09F2"/>
<path d="M314.524 349.229C265.228 415.702 224.165 376.8 204.24 345.452C116.617 207.597 152.119 161.142 196.308 146.412C228.356 135.729 290.399 138.724 310.865 142.213C410.834 159.253 367.741 277.469 314.524 349.229Z" fill="#08F412"/>
</svg>
